<?xml version="1.0" encoding="UTF-8" standalone="no"?>
<!DOCTYPE svg PUBLIC "-//W3C//DTD SVG 1.1//EN" "http://www.w3.org/Graphics/SVG/1.1/DTD/svg11.dtd">
<svg width="100%" height="100%" viewBox="0 0 3508 4961" version="1.1" xmlns="http://www.w3.org/2000/svg" xmlns:xlink="http://www.w3.org/1999/xlink" xml:space="preserve" xmlns:serif="http://www.serif.com/" style="fill-rule:evenodd;clip-rule:evenodd;stroke-linejoin:round;stroke-miterlimit:1.5;">
    <path d="M868.357,2401.869L868.357,2018.145C868.357,1813.492 1064.754,1821.748 1064.754,1821.748L2735.846,1821.748" style="fill:none;stroke:black;stroke-width:125px;"/>
    <g transform="matrix(2.600028,0,0,2.600028,-2740.093715,-4635.13244)">
        <path d="M1411.592,2627.991L1411.592,2592.42L1523.697,2480.469L1564.196,2480.469L1469.492,2571.939L1568.354,2706.218L1528.932,2706.218L1448.55,2591.958L1411.592,2627.991Z" style="fill-rule:nonzero;"/>
        <path d="M1411.592,2627.991L1411.592,2592.42L1523.697,2480.469L1564.196,2480.469L1469.492,2571.939L1568.354,2706.218L1528.932,2706.218L1448.55,2591.958L1411.592,2627.991Z"/>
        <path d="M1589.759,2706.218L1589.759,2542.681L1614.705,2542.681L1614.705,2565.933C1626.716,2547.968 1644.066,2538.985 1666.754,2538.985C1676.609,2538.985 1685.669,2540.756 1693.933,2544.298C1702.197,2547.84 1708.382,2552.485 1712.489,2558.234C1716.595,2563.983 1719.47,2570.81 1721.112,2578.715C1722.139,2583.848 1722.652,2592.83 1722.652,2605.663L1722.652,2706.218L1694.934,2706.218L1694.934,2606.741C1694.934,2595.448 1693.856,2587.004 1691.7,2581.409C1689.544,2575.814 1685.72,2571.349 1680.228,2568.012C1674.735,2564.676 1668.293,2563.008 1660.902,2563.008C1649.096,2563.008 1638.907,2566.755 1630.335,2574.249C1621.763,2581.743 1617.477,2595.961 1617.477,2616.904L1617.477,2706.218L1589.759,2706.218Z" style="fill-rule:nonzero;"/>
        <path d="M1589.759,2706.218L1589.759,2542.681L1614.705,2542.681L1614.705,2565.933C1626.716,2547.968 1644.066,2538.985 1666.754,2538.985C1676.609,2538.985 1685.669,2540.756 1693.933,2544.298C1702.197,2547.84 1708.382,2552.485 1712.489,2558.234C1716.595,2563.983 1719.47,2570.81 1721.112,2578.715C1722.139,2583.848 1722.652,2592.83 1722.652,2605.663L1722.652,2706.218L1694.934,2706.218L1694.934,2606.741C1694.934,2595.448 1693.856,2587.004 1691.7,2581.409C1689.544,2575.814 1685.72,2571.349 1680.228,2568.012C1674.735,2564.676 1668.293,2563.008 1660.902,2563.008C1649.096,2563.008 1638.907,2566.755 1630.335,2574.249C1621.763,2581.743 1617.477,2595.961 1617.477,2616.904L1617.477,2706.218L1589.759,2706.218Z"/>
        <path d="M1754.836,2624.45C1754.836,2594.165 1763.254,2571.734 1780.09,2557.156C1794.155,2545.042 1811.299,2538.985 1831.523,2538.985C1854.005,2538.985 1872.382,2546.351 1886.651,2561.083C1900.921,2575.814 1908.056,2596.167 1908.056,2622.14C1908.056,2643.185 1904.899,2659.739 1898.586,2671.802C1892.272,2683.864 1883.084,2693.232 1871.021,2699.905C1858.959,2706.578 1845.793,2709.914 1831.523,2709.914C1808.63,2709.914 1790.125,2702.574 1776.01,2687.894C1761.894,2673.213 1754.836,2652.065 1754.836,2624.45ZM1783.324,2624.45C1783.324,2645.392 1787.892,2661.074 1797.029,2671.494C1806.166,2681.914 1817.664,2687.124 1831.523,2687.124C1845.279,2687.124 1856.726,2681.888 1865.863,2671.417C1874.999,2660.945 1879.568,2644.982 1879.568,2623.526C1879.568,2603.302 1874.974,2587.98 1865.786,2577.56C1856.598,2567.14 1845.177,2561.93 1831.523,2561.93C1817.664,2561.93 1806.166,2567.114 1797.029,2577.483C1787.892,2587.851 1783.324,2603.507 1783.324,2624.45Z" style="fill-rule:nonzero;"/>
        <path d="M1754.836,2624.45C1754.836,2594.165 1763.254,2571.734 1780.09,2557.156C1794.155,2545.042 1811.299,2538.985 1831.523,2538.985C1854.005,2538.985 1872.382,2546.351 1886.651,2561.083C1900.921,2575.814 1908.056,2596.167 1908.056,2622.14C1908.056,2643.185 1904.899,2659.739 1898.586,2671.802C1892.272,2683.864 1883.084,2693.232 1871.021,2699.905C1858.959,2706.578 1845.793,2709.914 1831.523,2709.914C1808.63,2709.914 1790.125,2702.574 1776.01,2687.894C1761.894,2673.213 1754.836,2652.065 1754.836,2624.45ZM1783.324,2624.45C1783.324,2645.392 1787.892,2661.074 1797.029,2671.494C1806.166,2681.914 1817.664,2687.124 1831.523,2687.124C1845.279,2687.124 1856.726,2681.888 1865.863,2671.417C1874.999,2660.945 1879.568,2644.982 1879.568,2623.526C1879.568,2603.302 1874.974,2587.98 1865.786,2577.56C1856.598,2567.14 1845.177,2561.93 1831.523,2561.93C1817.664,2561.93 1806.166,2567.114 1797.029,2577.483C1787.892,2587.851 1783.324,2603.507 1783.324,2624.45Z"/>
        <path d="M2001.528,2706.218L2001.528,2507.109L1927.151,2507.109L1927.151,2480.469L2106.087,2480.469L2106.087,2507.109L2031.402,2507.109L2031.402,2706.218L2001.528,2706.218Z" style="fill-rule:nonzero;"/>
        <path d="M2001.528,2706.218L2001.528,2507.109L1927.151,2507.109L1927.151,2480.469L2106.087,2480.469L2106.087,2507.109L2031.402,2507.109L2031.402,2706.218L2001.528,2706.218Z"/>
    </g>
</svg>
