# Blender 5.2.0 LTS
# www.blender.org
mtllib notbox.mtl
o Cube
v 0.780465 0.780465 -0.780465
v 0.780465 -0.780465 -0.780465
v 0.780465 0.780465 0.780465
v 0.780465 -0.780465 0.780465
v -0.780465 0.780465 -0.780465
v -0.780465 -0.780465 -0.780465
v -0.780465 0.780465 0.780465
v -0.780465 -0.780465 0.780465
v 0.906386 0.093614 -0.093614
v 0.093614 0.093614 -0.906386
v 0.093614 0.906386 -0.093614
v 0.093614 0.093614 -0.093614
v 0.825109 0.825109 -0.906386
v 0.825109 0.906386 -0.825109
v 0.906386 0.825109 -0.825109
v 0.825109 0.093614 -0.906386
v 0.906386 0.093614 -0.825109
v 0.906386 0.825109 -0.093614
v 0.825109 0.906386 -0.093614
v 0.093614 0.906386 -0.825109
v 0.093614 0.825109 -0.906386
v -0.906386 0.093614 -0.093614
v -0.093614 0.093614 -0.906386
v -0.093614 0.906386 -0.093614
v -0.093614 0.093614 -0.093614
v -0.825109 0.825109 -0.906386
v -0.825109 0.906386 -0.825109
v -0.906386 0.825109 -0.825109
v -0.825109 0.093614 -0.906386
v -0.906386 0.093614 -0.825109
v -0.906386 0.825109 -0.093614
v -0.825109 0.906386 -0.093614
v -0.093614 0.906386 -0.825109
v -0.093614 0.825109 -0.906386
v 0.906386 0.093614 0.093614
v 0.093614 0.093614 0.906386
v 0.093614 0.906386 0.093614
v 0.093614 0.093614 0.093614
v 0.825109 0.825109 0.906386
v 0.825109 0.906386 0.825109
v 0.906386 0.825109 0.825109
v 0.825109 0.093614 0.906386
v 0.906386 0.093614 0.825109
v 0.906386 0.825109 0.093614
v 0.825109 0.906386 0.093614
v 0.093614 0.906386 0.825109
v 0.093614 0.825109 0.906386
v -0.906386 0.093614 0.093614
v -0.093614 0.093614 0.906386
v -0.093614 0.906386 0.093614
v -0.093614 0.093614 0.093614
v -0.825109 0.825109 0.906386
v -0.825109 0.906386 0.825109
v -0.906386 0.825109 0.825109
v -0.825109 0.093614 0.906386
v -0.906386 0.093614 0.825109
v -0.906386 0.825109 0.093614
v -0.825109 0.906386 0.093614
v -0.093614 0.906386 0.825109
v -0.093614 0.825109 0.906386
v 0.906386 -0.093614 -0.093614
v 0.093614 -0.093614 -0.906386
v 0.093614 -0.906386 -0.093614
v 0.093614 -0.093614 -0.093614
v 0.825109 -0.825109 -0.906386
v 0.825109 -0.906386 -0.825109
v 0.906386 -0.825109 -0.825109
v 0.825109 -0.093614 -0.906386
v 0.906386 -0.093614 -0.825109
v 0.906386 -0.825109 -0.093614
v 0.825109 -0.906386 -0.093614
v 0.093614 -0.906386 -0.825109
v 0.093614 -0.825109 -0.906386
v -0.906386 -0.093614 -0.093614
v -0.093614 -0.093614 -0.906386
v -0.093614 -0.906386 -0.093614
v -0.093614 -0.093614 -0.093614
v -0.825109 -0.825109 -0.906386
v -0.825109 -0.906386 -0.825109
v -0.906386 -0.825109 -0.825109
v -0.825109 -0.093614 -0.906386
v -0.906386 -0.093614 -0.825109
v -0.906386 -0.825109 -0.093614
v -0.825109 -0.906386 -0.093614
v -0.093614 -0.906386 -0.825109
v -0.093614 -0.825109 -0.906386
v 0.906386 -0.093614 0.093614
v 0.093614 -0.093614 0.906386
v 0.093614 -0.906386 0.093614
v 0.093614 -0.093614 0.093614
v 0.825109 -0.825109 0.906386
v 0.825109 -0.906386 0.825109
v 0.906386 -0.825109 0.825109
v 0.825109 -0.093614 0.906386
v 0.906386 -0.093614 0.825109
v 0.906386 -0.825109 0.093614
v 0.825109 -0.906386 0.093614
v 0.093614 -0.906386 0.825109
v 0.093614 -0.825109 0.906386
v -0.906386 -0.093614 0.093614
v -0.093614 -0.093614 0.906386
v -0.093614 -0.906386 0.093614
v -0.093614 -0.093614 0.093614
v -0.825109 -0.825109 0.906386
v -0.825109 -0.906386 0.825109
v -0.906386 -0.825109 0.825109
v -0.825109 -0.093614 0.906386
v -0.906386 -0.093614 0.825109
v -0.906386 -0.825109 0.093614
v -0.825109 -0.906386 0.093614
v -0.093614 -0.906386 0.825109
v -0.093614 -0.825109 0.906386
vn -0.0000 1.0000 -0.0000
vn -0.0000 -0.0000 1.0000
vn -1.0000 -0.0000 -0.0000
vn -0.0000 -1.0000 -0.0000
vn 1.0000 -0.0000 -0.0000
vn -0.0000 -0.0000 -1.0000
vn 0.5774 0.5774 -0.5774
vn 0.7071 -0.0000 -0.7071
vn 0.7071 0.7071 -0.0000
vn -0.0000 0.7071 -0.7071
vn -0.5773 0.5774 -0.5774
vn -0.7071 -0.0000 -0.7071
vn -0.7071 0.7071 -0.0000
vn 0.5774 0.5774 0.5773
vn 0.7071 -0.0000 0.7071
vn -0.0000 0.7071 0.7071
vn -0.5774 0.5774 0.5773
vn -0.7071 -0.0000 0.7071
vn 0.5774 -0.5773 -0.5774
vn 0.7071 -0.7071 -0.0000
vn -0.0000 -0.7071 -0.7071
vn -0.5774 -0.5774 -0.5773
vn -0.7071 -0.7071 -0.0000
vn 0.5774 -0.5773 0.5774
vn -0.0000 -0.7071 0.7071
vn -0.5774 -0.5773 0.5774
vt 0.625000 0.500000
vt 0.875000 0.500000
vt 0.875000 0.750000
vt 0.625000 0.750000
vt 0.375000 0.750000
vt 0.625000 1.000000
vt 0.375000 1.000000
vt 0.375000 0.000000
vt 0.625000 0.000000
vt 0.625000 0.250000
vt 0.375000 0.250000
vt 0.125000 0.500000
vt 0.375000 0.500000
vt 0.125000 0.750000
vt 0.600000 0.475000
vt 0.637500 0.500000
vt 0.600000 0.518750
vt 0.375000 0.525000
vt 0.366667 0.483333
vt 0.641667 0.758333
vt 0.600000 0.750000
vt 0.625000 0.237500
vt 0.600000 0.250000
vt 0.875000 0.525000
s 0
usemtl Material
f 1/1/1 5/2/1 7/3/1 3/4/1
f 4/5/2 3/4/2 7/6/2 8/7/2
f 8/8/3 7/9/3 5/10/3 6/11/3
f 6/12/4 2/13/4 4/5/4 8/14/4
f 2/13/5 1/1/5 3/4/5 4/5/5
f 6/11/6 5/10/6 1/1/6 2/13/6
usemtl Material.001
f 13/15/7 14/16/7 15/17/7
f 15/17/8 17/18/8 16/19/8 13/15/8
f 14/16/9 19/20/9 18/21/9 15/17/9
f 20/22/10 14/16/10 13/15/10 21/23/10
f 10/11/6 21/23/6 13/15/6 16/19/6
f 17/18/5 15/17/5 18/21/5 9/5/5
f 14/16/1 20/24/1 11/3/1 19/20/1
f 10/12/4 16/19/4 17/18/4 9/5/4 12/14/4
f 9/5/2 18/21/2 19/20/2 11/6/2 12/7/2
f 12/8/3 11/9/3 20/22/3 21/23/3 10/11/3
f 26/15/11 28/17/11 27/16/11
f 28/17/12 26/15/12 29/19/12 30/18/12
f 27/16/13 28/17/13 31/21/13 32/20/13
f 33/22/10 34/23/10 26/15/10 27/16/10
f 23/11/6 29/19/6 26/15/6 34/23/6
f 30/18/3 22/5/3 31/21/3 28/17/3
f 27/16/1 32/20/1 24/3/1 33/24/1
f 23/12/4 25/14/4 22/5/4 30/18/4 29/19/4
f 22/5/2 25/7/2 24/6/2 32/20/2 31/21/2
f 25/8/5 23/11/5 34/23/5 33/22/5 24/9/5
f 39/15/14 41/17/14 40/16/14
f 41/17/15 39/15/15 42/19/15 43/18/15
f 40/16/9 41/17/9 44/21/9 45/20/9
f 46/22/16 47/23/16 39/15/16 40/16/16
f 36/11/2 42/19/2 39/15/2 47/23/2
f 43/18/5 35/5/5 44/21/5 41/17/5
f 40/16/1 45/20/1 37/3/1 46/24/1
f 36/12/4 38/14/4 35/5/4 43/18/4 42/19/4
f 35/5/6 38/7/6 37/6/6 45/20/6 44/21/6
f 38/8/3 36/11/3 47/23/3 46/22/3 37/9/3
f 52/15/17 53/16/17 54/17/17
f 54/17/18 56/18/18 55/19/18 52/15/18
f 53/16/13 58/20/13 57/21/13 54/17/13
f 59/22/16 53/16/16 52/15/16 60/23/16
f 49/11/2 60/23/2 52/15/2 55/19/2
f 56/18/3 54/17/3 57/21/3 48/5/3
f 53/16/1 59/24/1 50/3/1 58/20/1
f 49/12/4 55/19/4 56/18/4 48/5/4 51/14/4
f 48/5/6 57/21/6 58/20/6 50/6/6 51/7/6
f 51/8/5 50/9/5 59/22/5 60/23/5 49/11/5
f 65/15/19 67/17/19 66/16/19
f 67/17/8 65/15/8 68/19/8 69/18/8
f 66/16/20 67/17/20 70/21/20 71/20/20
f 72/22/21 73/23/21 65/15/21 66/16/21
f 62/11/6 68/19/6 65/15/6 73/23/6
f 69/18/5 61/5/5 70/21/5 67/17/5
f 66/16/4 71/20/4 63/3/4 72/24/4
f 62/12/1 64/14/1 61/5/1 69/18/1 68/19/1
f 61/5/2 64/7/2 63/6/2 71/20/2 70/21/2
f 64/8/3 62/11/3 73/23/3 72/22/3 63/9/3
f 78/15/22 79/16/22 80/17/22
f 80/17/12 82/18/12 81/19/12 78/15/12
f 79/16/23 84/20/23 83/21/23 80/17/23
f 85/22/21 79/16/21 78/15/21 86/23/21
f 75/11/6 86/23/6 78/15/6 81/19/6
f 82/18/3 80/17/3 83/21/3 74/5/3
f 79/16/4 85/24/4 76/3/4 84/20/4
f 75/12/1 81/19/1 82/18/1 74/5/1 77/14/1
f 74/5/2 83/21/2 84/20/2 76/6/2 77/7/2
f 77/8/5 76/9/5 85/22/5 86/23/5 75/11/5
f 91/15/24 92/16/24 93/17/24
f 93/17/15 95/18/15 94/19/15 91/15/15
f 92/16/20 97/20/20 96/21/20 93/17/20
f 98/22/25 92/16/25 91/15/25 99/23/25
f 88/11/2 99/23/2 91/15/2 94/19/2
f 95/18/5 93/17/5 96/21/5 87/5/5
f 92/16/4 98/24/4 89/3/4 97/20/4
f 88/12/1 94/19/1 95/18/1 87/5/1 90/14/1
f 87/5/6 96/21/6 97/20/6 89/6/6 90/7/6
f 90/8/3 89/9/3 98/22/3 99/23/3 88/11/3
f 104/15/26 106/17/26 105/16/26
f 106/17/18 104/15/18 107/19/18 108/18/18
f 105/16/23 106/17/23 109/21/23 110/20/23
f 111/22/25 112/23/25 104/15/25 105/16/25
f 101/11/2 107/19/2 104/15/2 112/23/2
f 108/18/3 100/5/3 109/21/3 106/17/3
f 105/16/4 110/20/4 102/3/4 111/24/4
f 101/12/1 103/14/1 100/5/1 108/18/1 107/19/1
f 100/5/6 103/7/6 102/6/6 110/20/6 109/21/6
f 103/8/5 101/11/5 112/23/5 111/22/5 102/9/5
